# xmcd CD database file
#
# Track frame offsets:
#	182
#	17927
#	48070
#	68375
#	96972
#	120057
#	147957
#	175317
#	202325
#	215732
#
# Disc length: 3237 seconds
#
# Revision: 0
# Processed by: cddbd v1.5.2PL0 Copyright (c) Steve Scherf et al.
# Submitted via: CDex 1.51
#
DISCID=8b0ca30a
DTITLE=Bryan Rowe - Songs of the Soul
DYEAR=1993
DGENRE=New Age
TTITLE0=Redeemed
TTITLE1=Dance of Light
TTITLE2=Broken Bond
TTITLE3=Equinox
TTITLE4=Communion
TTITLE5=Embraced
TTITLE6=Vexation of Spirit
TTITLE7=Abandoned
TTITLE8=Love Mourned
TTITLE9=Love Reborn
EXTD=YEAR: 1993
EXTT0=
EXTT1=
EXTT2=
EXTT3=
EXTT4=
EXTT5=
EXTT6=
EXTT7=
EXTT8=
EXTT9=
PLAYORDER=
